# MagicaVoxel @ Ephtracy

# group
o 

# material
mtllib iceLevel.mtl
usemtl palette

# normals
vn -1 0 0
vn 1 0 0
vn 0 0 1
vn 0 0 -1
vn 0 -1 0
vn 0 1 0

# texcoords
vt 0.814453 0.5
vt 0.818359 0.5
vt 0.970703 0.5
vt 0.978516 0.5
vt 0.986328 0.5

# verts
v -0.5 0 -0.4
v -0.5 0 -1
v -0.5 0.8 -0.4
v -0.5 0.8 -0.5
v -0.5 0.8 -0.9
v -0.5 0.8 -1
v -0.5 0.9 -0.5
v -0.5 0.9 -0.9
v -0.5 1 -0.4
v -0.5 1 -0.5
v -0.5 1 -0.9
v -0.5 1 -1
v -0.5 1.1 -0.5
v -0.5 1.1 -0.9
v -0.4 1 -0.4
v -0.4 1 -0.5
v -0.4 1 -0.9
v -0.4 1 -1
v -0.4 1.1 -0.4
v -0.4 1.1 -0.5
v -0.4 1.1 -0.9
v -0.4 1.1 -1
v -0.2 1.3 -0.4
v -0.2 1.3 -0.9
v -0.2 1.4 -0.4
v -0.2 1.4 -0.9
v -0.2 1.5 -0.4
v -0.2 1.5 -0.9
v -0.1 1.1 -0.4
v -0.1 1.1 -0.5
v -0.1 1.3 -0.4
v -0.1 1.3 -0.5
v -0.1 1.5 -0.5
v -0.1 1.5 -0.7
v -0.1 1.6 -0.5
v -0.1 1.6 -0.7
v 0 1.1 -0.5
v 0 1.1 -0.9
v 0 1.3 -0.5
v 0 1.3 -0.9
v 0 1.5 -0.4
v 0 1.5 -0.5
v 0 1.6 -0.5
v 0 1.6 -0.6
v 0 1.7 -0.4
v 0 1.7 -0.5
v 0 1.8 -0.4
v 0 1.8 -0.6
v 0 1.9 -0.4
v 0 1.9 -0.6
v 0 0 -0.5
v 0 0 -0.7
v 0 0.1 -0.5
v 0 0.1 -0.6
v 0 0.1 -0.7
v 0 0.2 -0.5
v 0 0.2 -0.6
v 0 1.4 -0.7
v 0 1.4 -0.9
v 0 1.5 -0.7
v 0 1.5 -0.9
v 0.1 0 -0.7
v 0.1 0 -0.9
v 0.1 0.1 -0.6
v 0.1 0.1 -0.7
v 0.1 0.1 -0.8
v 0.1 0.1 -0.9
v 0.1 0.2 -0.5
v 0.1 0.2 -0.6
v 0.1 0.2 -0.7
v 0.1 0.2 -0.8
v 0.1 0.3 -0.6
v 0.1 0.3 -0.7
v 0.1 0.4 -0.5
v 0.1 0.4 -0.6
v 0.1 1 -0.9
v 0.1 1 -1
v 0.1 1.1 -0.7
v 0.1 1.1 -0.9
v 0.1 1.1 -1
v 0.1 1.3 -0.7
v 0.1 1.3 -0.9
v 0.1 1.4 -0.7
v 0.1 1.4 -0.9
v 0.2 0 -0.4
v 0.2 0 -0.5
v 0.2 0 -0.9
v 0.2 0 -1
v 0.2 0.1 -0.4
v 0.2 0.1 -0.5
v 0.2 0.1 -0.8
v 0.2 0.1 -0.9
v 0.2 0.2 -0.7
v 0.2 0.2 -0.8
v 0.2 0.3 -0.6
v 0.2 0.3 -0.7
v 0.2 0.4 -0.5
v 0.2 0.4 -0.6
v 0.2 0.4 -0.8
v 0.2 0.4 -1
v 0.2 0.5 -0.8
v 0.2 0.5 -1
v 0.2 0.6 -0.6
v 0.2 0.6 -0.8
v 0.2 0.7 -0.6
v 0.2 0.7 -0.8
v 0.2 0.8 -0.9
v 0.2 0.8 -1
v 0.2 0.9 -0.5
v 0.2 0.9 -0.7
v 0.2 0.9 -0.8
v 0.2 0.9 -0.9
v 0.2 1 -0.5
v 0.2 1 -0.7
v 0.2 1 -0.8
v 0.2 1 -0.9
v 0.2 1 -1
v 0.2 1.1 -0.7
v 0.2 1.1 -0.9
v 0.2 1.5 -0.6
v 0.2 1.5 -0.7
v 0.2 1.6 -0.6
v 0.2 1.6 -0.7
v 0.2 1.7 -0.4
v 0.2 1.7 -0.5
v 0.2 1.8 -0.4
v 0.2 1.8 -0.6
v 0.2 1.9 -0.4
v 0.2 1.9 -0.6
v 0.3 0.4 -0.8
v 0.3 0.4 -1
v 0.3 0.5 -0.8
v 0.3 0.5 -1
v 0.3 0.6 -0.6
v 0.3 0.6 -0.8
v 0.3 0.7 -0.6
v 0.3 0.7 -0.8
v 0.3 0.9 -0.5
v 0.3 0.9 -0.7
v 0.3 1 -0.5
v 0.3 1 -0.7
v -0.5 0 -0.4
v -0.5 0.8 -0.4
v -0.5 1 -0.4
v -0.4 0.8 -0.4
v -0.4 0.9 -0.4
v -0.4 1 -0.4
v -0.4 1.1 -0.4
v -0.3 0 -0.4
v -0.3 0.1 -0.4
v -0.3 0.3 -0.4
v -0.2 0.3 -0.4
v -0.2 0.8 -0.4
v -0.2 0.9 -0.4
v -0.2 1 -0.4
v -0.2 1.3 -0.4
v -0.2 1.4 -0.4
v -0.2 1.5 -0.4
v -0.1 0.8 -0.4
v -0.1 1 -0.4
v -0.1 1.1 -0.4
v -0.1 1.3 -0.4
v -0.1 1.4 -0.4
v -0.1 1.5 -0.4
v 0 1.5 -0.4
v 0 1.7 -0.4
v 0 1.8 -0.4
v 0 1.9 -0.4
v 0.2 0 -0.4
v 0.2 0.1 -0.4
v 0.2 1.7 -0.4
v 0.2 1.8 -0.4
v 0.2 1.9 -0.4
v -0.5 1 -0.5
v -0.5 1.1 -0.5
v -0.4 1 -0.5
v -0.4 1.1 -0.5
v -0.1 1.5 -0.5
v -0.1 1.6 -0.5
v 0 1.5 -0.5
v 0 1.6 -0.5
v 0.2 0.9 -0.5
v 0.2 1 -0.5
v 0.3 0.9 -0.5
v 0.3 1 -0.5
v 0 0.1 -0.6
v 0 0.2 -0.6
v 0.1 0.1 -0.6
v 0.1 0.2 -0.6
v 0.1 0.3 -0.6
v 0.1 0.4 -0.6
v 0.2 0.3 -0.6
v 0.2 0.4 -0.6
v 0.2 0.6 -0.6
v 0.2 0.7 -0.6
v 0.3 0.6 -0.6
v 0.3 0.7 -0.6
v 0 0 -0.7
v 0 0.1 -0.7
v 0.1 0 -0.7
v 0.1 0.1 -0.7
v 0.1 0.2 -0.7
v 0.1 0.3 -0.7
v 0.2 0.2 -0.7
v 0.2 0.3 -0.7
v 0.1 0.1 -0.8
v 0.1 0.2 -0.8
v 0.2 0.1 -0.8
v 0.2 0.2 -0.8
v 0.2 0.4 -0.8
v 0.2 0.5 -0.8
v 0.3 0.4 -0.8
v 0.3 0.5 -0.8
v 0.1 0 -0.9
v 0.1 0.1 -0.9
v 0.2 0 -0.9
v 0.2 0.1 -0.9
v -0.1 1.1 -0.5
v -0.1 1.3 -0.5
v 0 0 -0.5
v 0 0.1 -0.5
v 0 0.2 -0.5
v 0 1.1 -0.5
v 0 1.3 -0.5
v 0.1 0.2 -0.5
v 0.1 0.4 -0.5
v 0.2 0 -0.5
v 0.2 0.1 -0.5
v 0.2 0.4 -0.5
v 0 1.6 -0.6
v 0 1.8 -0.6
v 0 1.9 -0.6
v 0.2 1.6 -0.6
v 0.2 1.8 -0.6
v 0.2 1.9 -0.6
v -0.1 1.5 -0.7
v -0.1 1.6 -0.7
v 0 1.4 -0.7
v 0 1.5 -0.7
v 0.1 1.1 -0.7
v 0.1 1.3 -0.7
v 0.1 1.4 -0.7
v 0.2 0.9 -0.7
v 0.2 1 -0.7
v 0.2 1.1 -0.7
v 0.2 1.5 -0.7
v 0.2 1.6 -0.7
v 0.3 0.9 -0.7
v 0.3 1 -0.7
v 0.2 0.6 -0.8
v 0.2 0.7 -0.8
v 0.3 0.6 -0.8
v 0.3 0.7 -0.8
v -0.5 1 -0.9
v -0.5 1.1 -0.9
v -0.4 1 -0.9
v -0.4 1.1 -0.9
v -0.2 1.3 -0.9
v -0.2 1.4 -0.9
v -0.2 1.5 -0.9
v 0 1.1 -0.9
v 0 1.3 -0.9
v 0 1.4 -0.9
v 0 1.5 -0.9
v 0.1 1 -0.9
v 0.1 1.1 -0.9
v 0.1 1.3 -0.9
v 0.1 1.4 -0.9
v 0.2 1 -0.9
v 0.2 1.1 -0.9
v -0.5 0 -1
v -0.5 0.8 -1
v -0.5 1 -1
v -0.4 0.8 -1
v -0.4 0.9 -1
v -0.4 1 -1
v -0.4 1.1 -1
v -0.3 0.9 -1
v -0.3 1 -1
v 0 0.9 -1
v 0 1 -1
v 0.1 0.8 -1
v 0.1 0.9 -1
v 0.1 1 -1
v 0.1 1.1 -1
v 0.2 0 -1
v 0.2 0.4 -1
v 0.2 0.5 -1
v 0.2 0.8 -1
v 0.2 1 -1
v 0.3 0.4 -1
v 0.3 0.5 -1
v -0.5 0 -0.4
v -0.3 0 -0.4
v 0.2 0 -0.4
v -0.3 0 -0.5
v 0 0 -0.5
v 0.2 0 -0.5
v 0 0 -0.7
v 0.1 0 -0.7
v 0.1 0 -0.9
v 0.2 0 -0.9
v -0.5 0 -1
v 0.2 0 -1
v 0 0.1 -0.6
v 0.1 0.1 -0.6
v 0 0.1 -0.7
v 0.1 0.1 -0.7
v 0.1 0.1 -0.8
v 0.2 0.1 -0.8
v 0.1 0.1 -0.9
v 0.2 0.1 -0.9
v 0 0.2 -0.5
v 0.1 0.2 -0.5
v 0 0.2 -0.6
v 0.1 0.2 -0.6
v 0.1 0.2 -0.7
v 0.2 0.2 -0.7
v 0.1 0.2 -0.8
v 0.2 0.2 -0.8
v 0.1 0.3 -0.6
v 0.2 0.3 -0.6
v 0.1 0.3 -0.7
v 0.2 0.3 -0.7
v 0.1 0.4 -0.5
v 0.2 0.4 -0.5
v 0.1 0.4 -0.6
v 0.2 0.4 -0.6
v 0.2 0.4 -0.8
v 0.3 0.4 -0.8
v 0.2 0.4 -1
v 0.3 0.4 -1
v 0.2 0.6 -0.6
v 0.3 0.6 -0.6
v 0.2 0.6 -0.8
v 0.3 0.6 -0.8
v 0.2 0.9 -0.5
v 0.3 0.9 -0.5
v 0.2 0.9 -0.7
v 0.3 0.9 -0.7
v -0.2 1.3 -0.4
v -0.1 1.3 -0.4
v -0.1 1.3 -0.5
v 0 1.3 -0.5
v -0.2 1.3 -0.9
v 0 1.3 -0.9
v 0.2 0.5 -0.8
v 0.3 0.5 -0.8
v 0.2 0.5 -1
v 0.3 0.5 -1
v 0.2 0.7 -0.6
v 0.3 0.7 -0.6
v 0.2 0.7 -0.8
v 0.3 0.7 -0.8
v -0.5 1 -0.4
v -0.4 1 -0.4
v -0.5 1 -0.5
v -0.4 1 -0.5
v 0.2 1 -0.5
v 0.3 1 -0.5
v 0.2 1 -0.7
v 0.3 1 -0.7
v -0.5 1 -0.9
v -0.4 1 -0.9
v 0.1 1 -0.9
v 0.2 1 -0.9
v -0.5 1 -1
v -0.4 1 -1
v 0.1 1 -1
v 0.2 1 -1
v -0.4 1.1 -0.4
v -0.1 1.1 -0.4
v -0.5 1.1 -0.5
v -0.4 1.1 -0.5
v -0.1 1.1 -0.5
v 0 1.1 -0.5
v 0.1 1.1 -0.7
v 0.2 1.1 -0.7
v -0.5 1.1 -0.9
v -0.4 1.1 -0.9
v 0 1.1 -0.9
v 0.1 1.1 -0.9
v 0.2 1.1 -0.9
v -0.4 1.1 -1
v 0.1 1.1 -1
v 0 1.4 -0.7
v 0.1 1.4 -0.7
v 0 1.4 -0.9
v 0.1 1.4 -0.9
v -0.2 1.5 -0.4
v -0.1 1.5 -0.4
v 0 1.5 -0.4
v -0.1 1.5 -0.5
v 0 1.5 -0.5
v -0.1 1.5 -0.7
v 0 1.5 -0.7
v -0.2 1.5 -0.9
v 0 1.5 -0.9
v -0.1 1.6 -0.5
v 0 1.6 -0.5
v 0 1.6 -0.6
v 0.2 1.6 -0.6
v -0.1 1.6 -0.7
v 0.2 1.6 -0.7
v 0 1.9 -0.4
v 0.2 1.9 -0.4
v 0 1.9 -0.6
v 0.2 1.9 -0.6

# faces
f 3/3/1 2/3/1 1/3/1
f 4/3/1 2/3/1 3/3/1
f 5/3/1 2/3/1 4/3/1
f 6/3/1 2/3/1 5/3/1
f 7/5/1 4/5/1 3/5/1
f 7/3/1 5/3/1 4/3/1
f 8/5/1 6/5/1 5/5/1
f 8/3/1 5/3/1 7/3/1
f 9/5/1 7/5/1 3/5/1
f 9/5/1 8/5/1 7/5/1
f 10/5/1 8/5/1 9/5/1
f 11/5/1 6/5/1 8/5/1
f 11/5/1 8/5/1 10/5/1
f 12/5/1 6/5/1 11/5/1
f 13/5/1 11/5/1 10/5/1
f 14/5/1 11/5/1 13/5/1
f 19/5/1 16/5/1 15/5/1
f 20/5/1 16/5/1 19/5/1
f 21/5/1 18/5/1 17/5/1
f 22/5/1 18/5/1 21/5/1
f 25/3/1 24/3/1 23/3/1
f 26/3/1 24/3/1 25/3/1
f 27/5/1 26/5/1 25/5/1
f 28/5/1 26/5/1 27/5/1
f 31/1/1 30/1/1 29/1/1
f 32/1/1 30/1/1 31/1/1
f 35/5/1 34/5/1 33/5/1
f 36/5/1 34/5/1 35/5/1
f 39/3/1 38/3/1 37/3/1
f 40/3/1 38/3/1 39/3/1
f 43/1/1 42/1/1 41/1/1
f 45/1/1 43/1/1 41/1/1
f 46/3/1 44/3/1 43/3/1
f 46/1/1 43/1/1 45/1/1
f 47/3/1 46/3/1 45/3/1
f 48/3/1 44/3/1 46/3/1
f 48/3/1 46/3/1 47/3/1
f 49/5/1 48/5/1 47/5/1
f 50/5/1 48/5/1 49/5/1
f 51/3/2 52/3/2 53/3/2
f 53/3/2 52/3/2 54/3/2
f 54/3/2 52/3/2 55/3/2
f 53/3/2 54/3/2 56/3/2
f 56/3/2 54/3/2 57/3/2
f 58/5/2 59/5/2 60/5/2
f 60/5/2 59/5/2 61/5/2
f 62/3/2 63/3/2 65/3/2
f 65/3/2 63/3/2 66/3/2
f 66/3/2 63/3/2 67/3/2
f 64/3/2 65/3/2 69/3/2
f 65/3/2 66/3/2 69/3/2
f 69/3/2 66/3/2 70/3/2
f 70/3/2 66/3/2 71/3/2
f 68/3/2 69/3/2 72/3/2
f 69/3/2 70/3/2 72/3/2
f 72/3/2 70/3/2 73/3/2
f 68/3/2 72/3/2 74/3/2
f 74/3/2 72/3/2 75/3/2
f 76/5/2 77/5/2 79/5/2
f 79/5/2 77/5/2 80/5/2
f 78/3/2 79/3/2 81/3/2
f 81/3/2 79/3/2 82/3/2
f 81/5/2 82/5/2 83/5/2
f 83/5/2 82/5/2 84/5/2
f 85/2/2 86/2/2 89/2/2
f 89/2/2 86/2/2 90/2/2
f 87/3/2 88/3/2 92/3/2
f 91/3/2 92/3/2 94/3/2
f 93/3/2 94/3/2 96/3/2
f 89/1/2 90/1/2 97/1/2
f 95/3/2 96/3/2 98/3/2
f 94/3/2 92/3/2 99/3/2
f 96/3/2 94/3/2 99/3/2
f 98/3/2 96/3/2 99/3/2
f 92/3/2 88/3/2 100/3/2
f 99/3/2 92/3/2 100/3/2
f 98/3/2 99/3/2 101/3/2
f 97/3/2 98/3/2 101/3/2
f 97/3/2 101/3/2 103/3/2
f 101/3/2 102/3/2 103/3/2
f 103/3/2 102/3/2 104/3/2
f 97/3/2 103/3/2 105/3/2
f 104/3/2 102/3/2 106/3/2
f 106/3/2 102/3/2 107/3/2
f 105/3/2 106/3/2 107/3/2
f 107/3/2 102/3/2 108/3/2
f 89/1/2 97/1/2 109/1/2
f 97/3/2 105/3/2 109/3/2
f 105/3/2 107/3/2 109/3/2
f 109/3/2 107/3/2 110/3/2
f 110/3/2 107/3/2 111/3/2
f 107/5/2 108/5/2 112/5/2
f 111/3/2 107/3/2 112/3/2
f 89/1/2 109/1/2 113/1/2
f 110/3/2 111/3/2 114/3/2
f 111/5/2 112/5/2 115/5/2
f 114/3/2 111/3/2 115/3/2
f 112/5/2 108/5/2 116/5/2
f 115/5/2 112/5/2 116/5/2
f 116/5/2 108/5/2 117/5/2
f 114/5/2 115/5/2 118/5/2
f 113/3/2 114/3/2 118/3/2
f 115/5/2 116/5/2 118/5/2
f 118/5/2 116/5/2 119/5/2
f 113/3/2 118/3/2 120/3/2
f 120/3/2 118/3/2 121/3/2
f 113/3/2 120/3/2 122/3/2
f 120/5/2 121/5/2 122/5/2
f 122/5/2 121/5/2 123/5/2
f 89/1/2 113/1/2 124/1/2
f 113/3/2 122/3/2 125/3/2
f 124/1/2 113/1/2 125/1/2
f 124/3/2 125/3/2 126/3/2
f 125/3/2 122/3/2 127/3/2
f 126/3/2 125/3/2 127/3/2
f 126/5/2 127/5/2 128/5/2
f 128/5/2 127/5/2 129/5/2
f 130/4/2 131/4/2 132/4/2
f 132/4/2 131/4/2 133/4/2
f 134/4/2 135/4/2 136/4/2
f 136/4/2 135/4/2 137/4/2
f 138/4/2 139/4/2 140/4/2
f 140/4/2 139/4/2 141/4/2
f 145/3/3 143/3/3 142/3/3
f 145/5/3 144/5/3 143/5/3
f 146/5/3 144/5/3 145/5/3
f 147/5/3 144/5/3 146/5/3
f 149/3/3 145/3/3 142/3/3
f 149/3/3 146/3/3 145/3/3
f 150/3/3 146/3/3 149/3/3
f 151/3/3 146/3/3 150/3/3
f 152/1/3 151/1/3 150/1/3
f 152/3/3 146/3/3 151/3/3
f 153/3/3 146/3/3 152/3/3
f 154/5/3 148/5/3 147/5/3
f 154/3/3 146/3/3 153/3/3
f 154/5/3 147/5/3 146/5/3
f 155/5/3 148/5/3 154/5/3
f 159/1/3 153/1/3 152/1/3
f 159/3/3 154/3/3 153/3/3
f 159/3/3 155/3/3 154/3/3
f 160/5/3 148/5/3 155/5/3
f 160/3/3 155/3/3 159/3/3
f 161/5/3 148/5/3 160/5/3
f 162/3/3 157/3/3 156/3/3
f 163/5/3 158/5/3 157/5/3
f 163/3/3 157/3/3 162/3/3
f 164/5/3 158/5/3 163/5/3
f 165/1/3 162/1/3 161/1/3
f 165/1/3 161/1/3 160/1/3
f 165/1/3 164/1/3 163/1/3
f 165/1/3 163/1/3 162/1/3
f 165/1/3 160/1/3 159/1/3
f 169/2/3 150/2/3 149/2/3
f 170/1/3 165/1/3 159/1/3
f 170/2/3 150/2/3 169/2/3
f 170/1/3 152/1/3 150/1/3
f 170/1/3 159/1/3 152/1/3
f 170/1/3 166/1/3 165/1/3
f 171/3/3 167/3/3 166/3/3
f 171/1/3 166/1/3 170/1/3
f 172/5/3 168/5/3 167/5/3
f 172/3/3 167/3/3 171/3/3
f 173/5/3 168/5/3 172/5/3
f 176/5/3 175/5/3 174/5/3
f 177/5/3 175/5/3 176/5/3
f 180/5/3 179/5/3 178/5/3
f 181/5/3 179/5/3 180/5/3
f 184/4/3 183/4/3 182/4/3
f 185/4/3 183/4/3 184/4/3
f 188/3/3 187/3/3 186/3/3
f 189/3/3 187/3/3 188/3/3
f 192/3/3 191/3/3 190/3/3
f 193/3/3 191/3/3 192/3/3
f 196/4/3 195/4/3 194/4/3
f 197/4/3 195/4/3 196/4/3
f 200/3/3 199/3/3 198/3/3
f 201/3/3 199/3/3 200/3/3
f 204/3/3 203/3/3 202/3/3
f 205/3/3 203/3/3 204/3/3
f 208/3/3 207/3/3 206/3/3
f 209/3/3 207/3/3 208/3/3
f 212/4/3 211/4/3 210/4/3
f 213/4/3 211/4/3 212/4/3
f 216/3/3 215/3/3 214/3/3
f 217/3/3 215/3/3 216/3/3
f 218/1/4 219/1/4 223/1/4
f 223/1/4 219/1/4 224/1/4
f 221/1/4 222/1/4 225/1/4
f 220/2/4 221/2/4 227/2/4
f 225/1/4 226/1/4 228/1/4
f 227/2/4 221/2/4 228/2/4
f 221/1/4 225/1/4 228/1/4
f 228/1/4 226/1/4 229/1/4
f 230/3/4 231/3/4 233/3/4
f 231/5/4 232/5/4 234/5/4
f 233/3/4 231/3/4 234/3/4
f 234/5/4 232/5/4 235/5/4
f 236/5/4 237/5/4 239/5/4
f 238/3/4 239/3/4 242/3/4
f 240/3/4 241/3/4 245/3/4
f 241/3/4 242/3/4 245/3/4
f 239/5/4 237/5/4 246/5/4
f 245/3/4 242/3/4 246/3/4
f 242/3/4 239/3/4 246/3/4
f 246/5/4 237/5/4 247/5/4
f 243/4/4 244/4/4 248/4/4
f 248/4/4 244/4/4 249/4/4
f 250/4/4 251/4/4 252/4/4
f 252/4/4 251/4/4 253/4/4
f 254/5/4 255/5/4 256/5/4
f 256/5/4 255/5/4 257/5/4
f 258/3/4 259/3/4 262/3/4
f 259/5/4 260/5/4 263/5/4
f 262/3/4 259/3/4 263/3/4
f 263/5/4 260/5/4 264/5/4
f 261/3/4 262/3/4 266/3/4
f 262/5/4 263/5/4 267/5/4
f 266/3/4 262/3/4 267/3/4
f 267/5/4 263/5/4 268/5/4
f 265/5/4 266/5/4 269/5/4
f 269/5/4 266/5/4 270/5/4
f 271/3/4 272/3/4 274/3/4
f 272/5/4 273/5/4 274/5/4
f 274/5/4 273/5/4 275/5/4
f 275/5/4 273/5/4 276/5/4
f 274/3/4 275/3/4 278/3/4
f 276/5/4 277/5/4 278/5/4
f 275/5/4 276/5/4 278/5/4
f 278/5/4 277/5/4 279/5/4
f 274/3/4 278/3/4 280/3/4
f 278/3/4 279/3/4 280/3/4
f 279/5/4 277/5/4 281/5/4
f 280/3/4 279/3/4 281/3/4
f 271/3/4 274/3/4 282/3/4
f 274/3/4 280/3/4 282/3/4
f 280/5/4 281/5/4 283/5/4
f 282/3/4 280/3/4 283/3/4
f 281/5/4 277/5/4 284/5/4
f 283/5/4 281/5/4 284/5/4
f 284/5/4 277/5/4 285/5/4
f 271/3/4 282/3/4 286/3/4
f 286/3/4 282/3/4 287/3/4
f 287/3/4 282/3/4 288/3/4
f 282/5/4 283/5/4 289/5/4
f 288/3/4 282/3/4 289/3/4
f 283/5/4 284/5/4 289/5/4
f 289/5/4 284/5/4 290/5/4
f 287/4/4 288/4/4 291/4/4
f 291/4/4 288/4/4 292/4/4
f 296/3/5 294/3/5 293/3/5
f 296/2/5 295/2/5 294/2/5
f 297/2/5 295/2/5 296/2/5
f 298/2/5 295/2/5 297/2/5
f 299/3/5 297/3/5 296/3/5
f 301/3/5 300/3/5 299/3/5
f 303/3/5 296/3/5 293/3/5
f 303/3/5 302/3/5 301/3/5
f 303/3/5 301/3/5 299/3/5
f 303/3/5 299/3/5 296/3/5
f 304/3/5 302/3/5 303/3/5
f 307/3/5 306/3/5 305/3/5
f 308/3/5 306/3/5 307/3/5
f 311/3/5 310/3/5 309/3/5
f 312/3/5 310/3/5 311/3/5
f 315/3/5 314/3/5 313/3/5
f 316/3/5 314/3/5 315/3/5
f 319/3/5 318/3/5 317/3/5
f 320/3/5 318/3/5 319/3/5
f 323/3/5 322/3/5 321/3/5
f 324/3/5 322/3/5 323/3/5
f 327/3/5 326/3/5 325/3/5
f 328/3/5 326/3/5 327/3/5
f 331/4/5 330/4/5 329/4/5
f 332/4/5 330/4/5 331/4/5
f 335/4/5 334/4/5 333/4/5
f 336/4/5 334/4/5 335/4/5
f 339/4/5 338/4/5 337/4/5
f 340/4/5 338/4/5 339/4/5
f 343/3/5 342/3/5 341/3/5
f 345/3/5 343/3/5 341/3/5
f 345/3/5 344/3/5 343/3/5
f 346/3/5 344/3/5 345/3/5
f 347/4/6 348/4/6 349/4/6
f 349/4/6 348/4/6 350/4/6
f 351/4/6 352/4/6 353/4/6
f 353/4/6 352/4/6 354/4/6
f 355/5/6 356/5/6 357/5/6
f 357/5/6 356/5/6 358/5/6
f 359/4/6 360/4/6 361/4/6
f 361/4/6 360/4/6 362/4/6
f 363/5/6 364/5/6 367/5/6
f 367/5/6 364/5/6 368/5/6
f 365/5/6 366/5/6 369/5/6
f 369/5/6 366/5/6 370/5/6
f 371/5/6 372/5/6 374/5/6
f 374/5/6 372/5/6 375/5/6
f 373/5/6 374/5/6 379/5/6
f 374/5/6 375/5/6 379/5/6
f 375/5/6 376/5/6 379/5/6
f 379/5/6 376/5/6 380/5/6
f 380/5/6 376/5/6 381/5/6
f 377/5/6 378/5/6 382/5/6
f 382/5/6 378/5/6 383/5/6
f 380/5/6 381/5/6 384/5/6
f 381/5/6 382/5/6 384/5/6
f 384/5/6 382/5/6 385/5/6
f 386/5/6 387/5/6 388/5/6
f 388/5/6 387/5/6 389/5/6
f 390/5/6 391/5/6 393/5/6
f 391/1/6 392/1/6 393/1/6
f 393/1/6 392/1/6 394/1/6
f 390/5/6 393/5/6 395/5/6
f 390/5/6 395/5/6 397/5/6
f 395/5/6 396/5/6 397/5/6
f 397/5/6 396/5/6 398/5/6
f 399/5/6 400/5/6 401/5/6
f 399/5/6 401/5/6 403/5/6
f 401/5/6 402/5/6 403/5/6
f 403/5/6 402/5/6 404/5/6
f 405/5/6 406/5/6 407/5/6
f 407/5/6 406/5/6 408/5/6
