# MagicaVoxel @ Ephtracy

# group
o 

# normals
vn -1 0 0
vn 1 0 0
vn 0 0 1
vn 0 0 -1
vn 0 -1 0
vn 0 1 0

# texcoords
vt 0.845703 0.5
vt 0.849609 0.5
vt 0.876953 0.5
vt 0.880859 0.5
vt 0.939453 0.5
vt 0.943359 0.5
vt 0.970703 0.5
vt 0.974609 0.5
vt 0.986328 0.5

# verts
v -1 0.3 0.9
v -1 0.3 -0.2
v -1 1 0.9
v -1 1 -0.2
v -1 1.1 0.9
v -1 1.1 0.2
v -1 1.1 0.1
v -1 1.1 0
v -1 1.1 -0.1
v -1 1.1 -0.2
v -1 1.2 0
v -1 1.2 -0.1
v -1 1.3 0.2
v -1 1.3 0.1
v -1 1.4 0.5
v -1 1.4 0.3
v -1 1.4 0
v -1 1.4 -0.2
v -1 1.5 0.3
v -1 1.5 0
v -1 1.7 0.5
v -1 1.7 0.4
v -1 1.7 -0.1
v -1 1.7 -0.2
v -1 1.8 0
v -1 1.8 -0.1
v -1 2 0.4
v -1 2 0
v -0.9 1.1 0.7
v -0.9 1.1 0.2
v -0.9 1.1 0.1
v -0.9 1.1 0
v -0.9 1.1 -0.1
v -0.9 1.1 -0.2
v -0.9 1.2 0
v -0.9 1.2 -0.1
v -0.9 1.3 0.7
v -0.9 1.3 0.5
v -0.9 1.3 0.2
v -0.9 1.3 0.1
v -0.9 1.4 0.5
v -0.9 1.4 0.3
v -0.9 1.4 0
v -0.9 1.4 -0.2
v -0.9 1.5 0.3
v -0.9 1.5 0
v -0.3 1.1 0.8
v -0.3 1.1 0.7
v -0.3 1.1 0.6
v -0.3 1.2 1
v -0.3 1.2 0.8
v -0.3 1.2 0.7
v -0.3 1.2 0.6
v -0.3 1.2 0.4
v -0.3 1.3 0.6
v -0.3 1.3 0.5
v -0.3 1.4 1
v -0.3 1.4 0.6
v -0.3 1.4 0.5
v -0.3 1.4 0.4
v -0.2 1 0.9
v -0.2 1 0.5
v -0.2 1.1 1
v -0.2 1.1 0.9
v -0.2 1.1 0.8
v -0.2 1.1 0.7
v -0.2 1.1 0.6
v -0.2 1.2 1
v -0.2 1.2 0.9
v -0.2 1.2 0.8
v -0.2 1.2 0.6
v -0.2 1.2 0.5
v -0.1 1.1 0.5
v -0.1 1.1 0.2
v -0.1 1.1 0.1
v -0.1 1.1 -0.2
v -0.1 1.2 0.5
v -0.1 1.2 0.4
v -0.1 1.2 0.3
v -0.1 1.2 0
v -0.1 1.2 -0.1
v -0.1 1.3 0.4
v -0.1 1.3 0.3
v -0.1 1.3 0
v -0.1 1.3 -0.1
v -0.1 1.4 0.4
v -0.1 1.4 0.2
v -0.1 1.4 0.1
v -0.1 1.4 -0.2
v 0 1.2 0.2
v 0 1.2 0.1
v 0 1.3 0.2
v 0 1.3 0.1
v -0.9 1.8 0.3
v -0.9 1.8 0.1
v -0.9 1.9 0.3
v -0.9 1.9 0.1
v -0.5 1 0.9
v -0.5 1 0.4
v -0.5 1 0
v -0.5 1 -0.2
v -0.5 1.1 0.9
v -0.5 1.1 0.7
v -0.5 1.1 0.4
v -0.5 1.1 0.3
v -0.5 1.1 0.1
v -0.5 1.1 0
v -0.5 1.2 0.4
v -0.5 1.2 0.3
v -0.5 1.2 0.1
v -0.5 1.2 -0.2
v -0.5 1.3 0.7
v -0.5 1.3 0.5
v -0.5 1.4 0.1
v -0.5 1.5 0
v -0.5 1.5 -0.2
v -0.5 1.7 0.5
v -0.5 1.7 0.4
v -0.5 1.7 0.3
v -0.5 1.7 0.1
v -0.5 1.7 0
v -0.5 1.7 -0.1
v -0.5 1.7 -0.2
v -0.5 1.8 0.3
v -0.5 1.8 0.1
v -0.5 1.8 0
v -0.5 1.8 -0.1
v -0.5 1.9 0.3
v -0.5 1.9 0.1
v -0.5 2 0.4
v -0.5 2 0
v -0.4 1 0.4
v -0.4 1 0.3
v -0.4 1 0.1
v -0.4 1 0
v -0.4 1.1 0.4
v -0.4 1.1 0.3
v -0.4 1.1 0.2
v -0.4 1.1 0.1
v -0.4 1.1 0
v -0.4 1.2 0.3
v -0.4 1.2 0.2
v -0.4 1.4 0.2
v -0.4 1.4 0.1
v -0.4 1.7 0.3
v -0.4 1.7 0.2
v -0.4 1.8 0.3
v -0.4 1.8 0.2
v -0.4 1.8 0.1
v -0.3 1 0.3
v -0.3 1 0.2
v -0.3 1 0.1
v -0.3 1.1 0.3
v -0.3 1.1 0.2
v -0.3 1.1 0.1
v 0.1 1.1 1
v 0.1 1.1 0.9
v 0.1 1.2 1
v 0.1 1.2 0.9
v 0.1 1.2 0.2
v 0.1 1.2 0.1
v 0.1 1.3 0.2
v 0.1 1.3 0.1
v 0.2 0.5 0.7
v 0.2 0.5 0.3
v 0.2 0.6 0.7
v 0.2 0.6 0.6
v 0.2 0.7 0.6
v 0.2 0.7 0.4
v 0.2 0.8 0.4
v 0.2 0.8 0.3
v 0.2 1.1 0.7
v 0.2 1.1 0.6
v 0.2 1.1 0.5
v 0.2 1.1 0.2
v 0.2 1.1 0.1
v 0.2 1.1 -0.2
v 0.2 1.2 0.5
v 0.2 1.2 0.4
v 0.2 1.2 0.3
v 0.2 1.2 0
v 0.2 1.2 -0.1
v 0.2 1.3 0.4
v 0.2 1.3 0.3
v 0.2 1.3 0
v 0.2 1.3 -0.1
v 0.2 1.4 0.4
v 0.2 1.4 0.2
v 0.2 1.4 0.1
v 0.2 1.4 -0.2
v 0.3 0.3 0.9
v 0.3 0.3 -0.2
v 0.3 0.4 0.7
v 0.3 0.4 0.3
v 0.3 0.5 0.7
v 0.3 0.5 0.3
v 0.3 0.7 0.6
v 0.3 0.7 0.4
v 0.3 0.8 0.5
v 0.3 0.8 0.4
v 0.3 0.8 0.3
v 0.3 0.8 -0.1
v 0.3 0.8 -0.2
v 0.3 0.9 0.4
v 0.3 0.9 -0.1
v 0.3 1 0.8
v 0.3 1 0.7
v 0.3 1 0.5
v 0.3 1 -0.2
v 0.3 1.1 0.6
v 0.3 1.2 0.9
v 0.3 1.2 0.8
v 0.3 1.2 0.6
v 0.3 1.2 0.5
v 0.4 1 0.8
v 0.4 1 0.7
v 0.4 1.1 0.7
v 0.4 1.1 0.6
v 0.4 1.2 1
v 0.4 1.2 0.8
v 0.4 1.2 0.6
v 0.4 1.2 0.4
v 0.4 1.3 0.8
v 0.4 1.3 0.7
v 0.4 1.4 1
v 0.4 1.4 0.8
v 0.4 1.4 0.7
v 0.4 1.4 0.4
v -0.3 1.2 1
v -0.3 1.4 1
v -0.2 1.1 1
v -0.2 1.2 1
v 0.1 1.1 1
v 0.1 1.2 1
v 0.2 1.3 1
v 0.2 1.4 1
v 0.3 1.3 1
v 0.3 1.4 1
v 0.4 1.2 1
v 0.4 1.4 1
v -1 0.3 0.9
v -1 1 0.9
v -1 1.1 0.9
v -0.5 1 0.9
v -0.5 1.1 0.9
v -0.2 0.7 0.9
v -0.2 1 0.9
v -0.2 1.1 0.9
v -0.1 0.5 0.9
v -0.1 0.7 0.9
v 0 0.4 0.9
v 0 0.5 0.9
v 0.1 0.3 0.9
v 0.1 0.4 0.9
v 0.1 1.1 0.9
v 0.1 1.2 0.9
v 0.3 0.3 0.9
v 0.3 1.2 0.9
v -0.3 1.1 0.8
v -0.3 1.2 0.8
v -0.2 1.1 0.8
v -0.2 1.2 0.8
v 0.3 1 0.8
v 0.3 1.2 0.8
v 0.4 1 0.8
v 0.4 1.2 0.8
v -0.9 1.1 0.7
v -0.9 1.3 0.7
v -0.5 1.1 0.7
v -0.5 1.3 0.7
v 0.2 0.7 0.6
v 0.2 1.1 0.6
v 0.3 0.7 0.6
v 0.3 1.1 0.6
v -1 1.4 0.5
v -1 1.7 0.5
v -0.9 1.3 0.5
v -0.9 1.4 0.5
v -0.5 1.3 0.5
v -0.5 1.7 0.5
v -1 1.7 0.4
v -1 2 0.4
v -0.5 1 0.4
v -0.5 1.1 0.4
v -0.5 1.7 0.4
v -0.5 2 0.4
v -0.4 1 0.4
v -0.4 1.1 0.4
v -0.5 1.1 0.3
v -0.5 1.2 0.3
v -0.5 1.7 0.3
v -0.5 1.8 0.3
v -0.4 1 0.3
v -0.4 1.1 0.3
v -0.4 1.2 0.3
v -0.4 1.7 0.3
v -0.4 1.8 0.3
v -0.3 1 0.3
v -0.3 1.1 0.3
v 0.2 0.5 0.3
v 0.2 0.8 0.3
v 0.3 0.5 0.3
v 0.3 0.8 0.3
v -1 1.1 0.2
v -1 1.3 0.2
v -0.9 1.1 0.2
v -0.9 1.3 0.2
v -0.9 1.8 0.1
v -0.9 1.9 0.1
v -0.5 1.8 0.1
v -0.5 1.9 0.1
v -0.1 1.1 0.1
v -0.1 1.4 0.1
v 0 1.2 0.1
v 0 1.3 0.1
v 0.1 1.2 0.1
v 0.1 1.3 0.1
v 0.2 1.1 0.1
v 0.2 1.4 0.1
v -1 1.1 0
v -1 1.2 0
v -1 1.4 0
v -1 1.5 0
v -0.9 1.1 0
v -0.9 1.2 0
v -0.9 1.4 0
v -0.9 1.5 0
v 0.2 0.5 0.7
v 0.2 0.6 0.7
v 0.2 1.1 0.7
v 0.3 0.5 0.7
v 0.3 1 0.7
v 0.3 1.1 0.7
v 0.4 1 0.7
v 0.4 1.1 0.7
v -0.3 1.1 0.6
v -0.3 1.2 0.6
v -0.2 1.1 0.6
v -0.2 1.2 0.6
v 0.3 1.1 0.6
v 0.3 1.2 0.6
v 0.4 1.1 0.6
v 0.4 1.2 0.6
v -0.2 1 0.5
v -0.2 1.2 0.5
v -0.1 1.1 0.5
v -0.1 1.2 0.5
v 0.2 1.1 0.5
v 0.2 1.2 0.5
v 0.3 1 0.5
v 0.3 1.2 0.5
v -0.3 1.2 0.4
v -0.3 1.4 0.4
v -0.1 1.2 0.4
v -0.1 1.3 0.4
v -0.1 1.4 0.4
v 0.2 0.7 0.4
v 0.2 0.8 0.4
v 0.2 1.2 0.4
v 0.2 1.3 0.4
v 0.2 1.4 0.4
v 0.3 0.7 0.4
v 0.3 0.8 0.4
v 0.4 1.2 0.4
v 0.4 1.4 0.4
v -1 1.4 0.3
v -1 1.5 0.3
v -0.9 1.4 0.3
v -0.9 1.5 0.3
v -0.9 1.8 0.3
v -0.9 1.9 0.3
v -0.7 1.8 0.3
v -0.5 1.8 0.3
v -0.5 1.9 0.3
v -0.1 1.1 0.2
v -0.1 1.4 0.2
v 0 1.2 0.2
v 0 1.3 0.2
v 0.1 1.2 0.2
v 0.1 1.3 0.2
v 0.2 1.1 0.2
v 0.2 1.4 0.2
v -1 1.1 0.1
v -1 1.3 0.1
v -0.9 1.1 0.1
v -0.9 1.3 0.1
v -0.5 1.1 0.1
v -0.5 1.2 0.1
v -0.5 1.4 0.1
v -0.5 1.7 0.1
v -0.5 1.8 0.1
v -0.4 1 0.1
v -0.4 1.1 0.1
v -0.4 1.4 0.1
v -0.4 1.8 0.1
v -0.3 1 0.1
v -0.3 1.1 0.1
v -1 1.8 0
v -1 2 0
v -0.5 1 0
v -0.5 1.1 0
v -0.5 1.8 0
v -0.5 2 0
v -0.4 1 0
v -0.4 1.1 0
v -1 1.1 -0.1
v -1 1.2 -0.1
v -1 1.7 -0.1
v -1 1.8 -0.1
v -0.9 1.1 -0.1
v -0.9 1.2 -0.1
v -0.5 1.7 -0.1
v -0.5 1.8 -0.1
v -1 0.3 -0.2
v -1 1 -0.2
v -1 1.1 -0.2
v -1 1.4 -0.2
v -1 1.7 -0.2
v -0.9 1.1 -0.2
v -0.9 1.4 -0.2
v -0.6 1.2 -0.2
v -0.6 1.5 -0.2
v -0.5 1 -0.2
v -0.5 1.2 -0.2
v -0.5 1.5 -0.2
v -0.5 1.7 -0.2
v -0.1 1.1 -0.2
v -0.1 1.4 -0.2
v 0 0.3 -0.2
v 0 0.4 -0.2
v 0.1 0.4 -0.2
v 0.1 0.5 -0.2
v 0.2 0.5 -0.2
v 0.2 0.8 -0.2
v 0.2 1.1 -0.2
v 0.2 1.4 -0.2
v 0.3 0.3 -0.2
v 0.3 0.8 -0.2
v 0.3 1 -0.2
v -1 0.3 0.9
v 0.1 0.3 0.9
v 0.3 0.3 0.9
v 0 0.3 -0.1
v 0.1 0.3 -0.1
v -1 0.3 -0.2
v 0 0.3 -0.2
v 0.3 0.3 -0.2
v 0.2 0.7 0.6
v 0.3 0.7 0.6
v 0.2 0.7 0.4
v 0.3 0.7 0.4
v 0.2 0.8 0.4
v 0.3 0.8 0.4
v 0.2 0.8 0.3
v 0.3 0.8 0.3
v 0.3 1 0.8
v 0.4 1 0.8
v 0.3 1 0.7
v 0.4 1 0.7
v -0.2 1.1 1
v 0.1 1.1 1
v -0.2 1.1 0.9
v 0.1 1.1 0.9
v -0.3 1.1 0.8
v -0.2 1.1 0.8
v -0.3 1.1 0.7
v -0.2 1.1 0.7
v 0.2 1.1 0.7
v 0.3 1.1 0.7
v 0.4 1.1 0.7
v -0.3 1.1 0.6
v -0.2 1.1 0.6
v 0.2 1.1 0.6
v 0.3 1.1 0.6
v 0.4 1.1 0.6
v -0.1 1.1 0.5
v 0.2 1.1 0.5
v -0.1 1.1 0.2
v 0.2 1.1 0.2
v -0.1 1.1 0.1
v 0.2 1.1 0.1
v -0.1 1.1 -0.2
v 0.2 1.1 -0.2
v -0.3 1.2 1
v -0.2 1.2 1
v 0.1 1.2 1
v 0.4 1.2 1
v -0.2 1.2 0.9
v 0.1 1.2 0.9
v 0.3 1.2 0.9
v -0.3 1.2 0.8
v -0.2 1.2 0.8
v 0.3 1.2 0.8
v 0.4 1.2 0.8
v -0.3 1.2 0.6
v -0.2 1.2 0.6
v 0.3 1.2 0.6
v 0.4 1.2 0.6
v -0.2 1.2 0.5
v -0.1 1.2 0.5
v 0.2 1.2 0.5
v 0.3 1.2 0.5
v -0.3 1.2 0.4
v -0.1 1.2 0.4
v 0.2 1.2 0.4
v 0.4 1.2 0.4
v 0 1.2 0.2
v 0.1 1.2 0.2
v 0 1.2 0.1
v 0.1 1.2 0.1
v -1 1.4 0.5
v -0.9 1.4 0.5
v -1 1.4 0.3
v -0.9 1.4 0.3
v -1 1.4 0
v -0.9 1.4 0
v -1 1.4 -0.2
v -0.9 1.4 -0.2
v -1 1.5 0.3
v -0.9 1.5 0.3
v -1 1.5 0
v -0.9 1.5 0
v -0.9 1.9 0.3
v -0.5 1.9 0.3
v -0.9 1.9 0.1
v -0.5 1.9 0.1
v 0.2 0.5 0.7
v 0.3 0.5 0.7
v 0.2 0.5 0.3
v 0.3 0.5 0.3
v -0.5 1 0.9
v -0.2 1 0.9
v -0.2 1 0.5
v 0.3 1 0.5
v -0.5 1 0.4
v -0.4 1 0.4
v -0.4 1 0.3
v -0.3 1 0.3
v -0.3 1 0.2
v -0.4 1 0.1
v -0.3 1 0.1
v -0.5 1 0
v -0.4 1 0
v -0.5 1 -0.2
v 0.3 1 -0.2
v -1 1.1 0.9
v -0.5 1.1 0.9
v -0.9 1.1 0.7
v -0.5 1.1 0.7
v -0.5 1.1 0.4
v -0.4 1.1 0.4
v -0.5 1.1 0.3
v -0.4 1.1 0.3
v -0.3 1.1 0.3
v -1 1.1 0.2
v -0.9 1.1 0.2
v -0.4 1.1 0.2
v -0.3 1.1 0.2
v -1 1.1 0.1
v -0.9 1.1 0.1
v -0.5 1.1 0.1
v -0.4 1.1 0.1
v -0.3 1.1 0.1
v -1 1.1 0
v -0.9 1.1 0
v -0.5 1.1 0
v -0.4 1.1 0
v -1 1.1 -0.1
v -0.9 1.1 -0.1
v -1 1.1 -0.2
v -0.9 1.1 -0.2
v -1 1.2 0
v -0.9 1.2 0
v -1 1.2 -0.1
v -0.9 1.2 -0.1
v -0.9 1.3 0.7
v -0.5 1.3 0.7
v -0.9 1.3 0.5
v -0.5 1.3 0.5
v -1 1.3 0.2
v -0.9 1.3 0.2
v 0 1.3 0.2
v 0.1 1.3 0.2
v -1 1.3 0.1
v -0.9 1.3 0.1
v 0 1.3 0.1
v 0.1 1.3 0.1
v -0.3 1.4 1
v 0.2 1.4 1
v 0.3 1.4 1
v 0.4 1.4 1
v -0.2 1.4 0.9
v -0.1 1.4 0.9
v 0 1.4 0.9
v 0.1 1.4 0.9
v 0.2 1.4 0.9
v 0.3 1.4 0.9
v -0.2 1.4 0.8
v -0.1 1.4 0.8
v 0 1.4 0.8
v 0.1 1.4 0.8
v 0.3 1.4 0.8
v 0.4 1.4 0.8
v 0.2 1.4 0.7
v 0.3 1.4 0.7
v 0.4 1.4 0.7
v -0.3 1.4 0.6
v -0.2 1.4 0.6
v 0.2 1.4 0.6
v 0.3 1.4 0.6
v -0.3 1.4 0.5
v -0.2 1.4 0.5
v -0.1 1.4 0.5
v 0.2 1.4 0.5
v -0.3 1.4 0.4
v -0.1 1.4 0.4
v 0.2 1.4 0.4
v 0.4 1.4 0.4
v -0.1 1.4 0.2
v 0.2 1.4 0.2
v -0.1 1.4 0.1
v 0.2 1.4 0.1
v -0.1 1.4 -0.2
v 0.2 1.4 -0.2
v -1 1.7 0.5
v -0.5 1.7 0.5
v -1 1.7 0.4
v -0.5 1.7 0.4
v -1 1.7 -0.1
v -0.5 1.7 -0.1
v -1 1.7 -0.2
v -0.5 1.7 -0.2
v -0.9 1.8 0.3
v -0.7 1.8 0.3
v -0.5 1.8 0.3
v -0.4 1.8 0.3
v -0.7 1.8 0.2
v -0.4 1.8 0.2
v -0.9 1.8 0.1
v -0.5 1.8 0.1
v -0.4 1.8 0.1
v -1 1.8 0
v -0.5 1.8 0
v -1 1.8 -0.1
v -0.5 1.8 -0.1
v -1 2 0.4
v -0.5 2 0.4
v -1 2 0
v -0.5 2 0

# faces
f 3/4/1 2/4/1 1/4/1
f 4/4/1 2/4/1 3/4/1
f 5/7/1 4/7/1 3/7/1
f 6/7/1 4/7/1 5/7/1
f 7/7/1 4/7/1 6/7/1
f 8/7/1 4/7/1 7/7/1
f 9/7/1 4/7/1 8/7/1
f 10/7/1 4/7/1 9/7/1
f 11/8/1 9/8/1 8/8/1
f 12/8/1 9/8/1 11/8/1
f 13/8/1 7/8/1 6/8/1
f 14/8/1 7/8/1 13/8/1
f 19/7/1 16/7/1 15/7/1
f 20/7/1 18/7/1 17/7/1
f 21/7/1 19/7/1 15/7/1
f 21/7/1 20/7/1 19/7/1
f 22/7/1 20/7/1 21/7/1
f 23/7/1 18/7/1 20/7/1
f 23/7/1 20/7/1 22/7/1
f 24/7/1 18/7/1 23/7/1
f 25/7/1 23/7/1 22/7/1
f 26/7/1 23/7/1 25/7/1
f 27/7/1 25/7/1 22/7/1
f 28/7/1 25/7/1 27/7/1
f 35/7/1 32/7/1 31/7/1
f 36/7/1 34/7/1 33/7/1
f 37/7/1 30/7/1 29/7/1
f 38/7/1 30/7/1 37/7/1
f 39/7/1 30/7/1 38/7/1
f 40/7/1 36/7/1 35/7/1
f 40/7/1 35/7/1 31/7/1
f 41/7/1 39/7/1 38/7/1
f 41/7/1 40/7/1 39/7/1
f 42/7/1 40/7/1 41/7/1
f 43/7/1 36/7/1 40/7/1
f 43/7/1 40/7/1 42/7/1
f 44/7/1 34/7/1 36/7/1
f 44/7/1 36/7/1 43/7/1
f 45/7/1 43/7/1 42/7/1
f 46/7/1 43/7/1 45/7/1
f 51/5/1 48/5/1 47/5/1
f 52/6/1 49/6/1 48/6/1
f 52/5/1 48/5/1 51/5/1
f 53/6/1 49/6/1 52/6/1
f 55/5/1 51/5/1 50/5/1
f 55/5/1 54/5/1 53/5/1
f 55/5/1 53/5/1 52/5/1
f 55/5/1 52/5/1 51/5/1
f 56/5/1 54/5/1 55/5/1
f 57/5/1 55/5/1 50/5/1
f 58/6/1 56/6/1 55/6/1
f 58/5/1 55/5/1 57/5/1
f 59/5/1 54/5/1 56/5/1
f 59/6/1 56/6/1 58/6/1
f 60/5/1 54/5/1 59/5/1
f 64/1/1 62/1/1 61/1/1
f 65/1/1 62/1/1 64/1/1
f 66/1/1 62/1/1 65/1/1
f 67/1/1 62/1/1 66/1/1
f 68/5/1 64/5/1 63/5/1
f 69/1/1 65/1/1 64/1/1
f 69/5/1 64/5/1 68/5/1
f 70/1/1 65/1/1 69/1/1
f 71/1/1 62/1/1 67/1/1
f 72/1/1 62/1/1 71/1/1
f 77/1/1 74/1/1 73/1/1
f 78/1/1 74/1/1 77/1/1
f 79/1/1 74/1/1 78/1/1
f 80/1/1 76/1/1 75/1/1
f 81/1/1 76/1/1 80/1/1
f 82/2/1 79/2/1 78/2/1
f 83/1/1 74/1/1 79/1/1
f 83/2/1 79/2/1 82/2/1
f 84/2/1 81/2/1 80/2/1
f 84/1/1 80/1/1 75/1/1
f 85/1/1 76/1/1 81/1/1
f 85/2/1 81/2/1 84/2/1
f 86/1/1 83/1/1 82/1/1
f 87/1/1 74/1/1 83/1/1
f 87/1/1 83/1/1 86/1/1
f 88/1/1 84/1/1 75/1/1
f 88/1/1 85/1/1 84/1/1
f 89/1/1 76/1/1 85/1/1
f 89/1/1 85/1/1 88/1/1
f 92/1/1 91/1/1 90/1/1
f 93/1/1 91/1/1 92/1/1
f 94/7/2 95/7/2 96/7/2
f 96/7/2 95/7/2 97/7/2
f 98/7/2 99/7/2 102/7/2
f 102/7/2 99/7/2 103/7/2
f 103/7/2 99/7/2 104/7/2
f 100/7/2 101/7/2 107/7/2
f 104/7/2 105/7/2 108/7/2
f 103/7/2 104/7/2 108/7/2
f 108/7/2 105/7/2 109/7/2
f 106/7/2 107/7/2 110/7/2
f 107/7/2 101/7/2 111/7/2
f 110/7/2 107/7/2 111/7/2
f 103/7/2 108/7/2 112/7/2
f 112/7/2 108/7/2 113/7/2
f 110/8/2 111/8/2 114/8/2
f 114/8/2 111/8/2 115/8/2
f 115/8/2 111/8/2 116/8/2
f 113/7/2 108/7/2 117/7/2
f 108/8/2 109/8/2 118/8/2
f 117/7/2 108/7/2 118/7/2
f 118/8/2 109/8/2 119/8/2
f 114/8/2 115/8/2 120/8/2
f 115/7/2 116/7/2 121/7/2
f 120/8/2 115/8/2 121/8/2
f 121/7/2 116/7/2 122/7/2
f 122/7/2 116/7/2 123/7/2
f 118/7/2 119/7/2 124/7/2
f 121/7/2 122/7/2 125/7/2
f 120/7/2 121/7/2 125/7/2
f 125/7/2 122/7/2 126/7/2
f 126/7/2 122/7/2 127/7/2
f 118/7/2 124/7/2 128/7/2
f 125/7/2 126/7/2 129/7/2
f 118/7/2 128/7/2 130/7/2
f 128/7/2 129/7/2 130/7/2
f 129/7/2 126/7/2 131/7/2
f 130/7/2 129/7/2 131/7/2
f 132/3/2 133/3/2 136/3/2
f 136/3/2 133/3/2 137/3/2
f 134/9/2 135/9/2 139/9/2
f 139/9/2 135/9/2 140/9/2
f 137/3/2 138/3/2 141/3/2
f 138/3/2 139/3/2 141/3/2
f 141/3/2 139/3/2 142/3/2
f 141/4/2 142/4/2 143/4/2
f 142/3/2 139/3/2 143/3/2
f 143/3/2 139/3/2 144/3/2
f 141/4/2 143/4/2 145/4/2
f 143/4/2 144/4/2 145/4/2
f 145/4/2 144/4/2 146/4/2
f 145/3/2 146/3/2 147/3/2
f 146/4/2 144/4/2 148/4/2
f 147/3/2 146/3/2 148/3/2
f 148/4/2 144/4/2 149/4/2
f 150/9/2 151/9/2 153/9/2
f 151/3/2 152/3/2 154/3/2
f 153/9/2 151/9/2 154/9/2
f 154/3/2 152/3/2 155/3/2
f 156/5/2 157/5/2 158/5/2
f 158/5/2 157/5/2 159/5/2
f 160/1/2 161/1/2 162/1/2
f 162/1/2 161/1/2 163/1/2
f 164/5/2 165/5/2 166/5/2
f 166/5/2 165/5/2 167/5/2
f 166/1/2 167/1/2 168/1/2
f 167/5/2 165/5/2 168/5/2
f 168/5/2 165/5/2 169/5/2
f 169/5/2 165/5/2 170/5/2
f 170/5/2 165/5/2 171/5/2
f 166/1/2 168/1/2 172/1/2
f 172/1/2 168/1/2 173/1/2
f 174/1/2 175/1/2 178/1/2
f 178/1/2 175/1/2 179/1/2
f 179/1/2 175/1/2 180/1/2
f 176/1/2 177/1/2 181/1/2
f 181/1/2 177/1/2 182/1/2
f 179/2/2 180/2/2 183/2/2
f 180/1/2 175/1/2 184/1/2
f 183/2/2 180/2/2 184/2/2
f 181/2/2 182/2/2 185/2/2
f 176/1/2 181/1/2 185/1/2
f 182/1/2 177/1/2 186/1/2
f 185/2/2 182/2/2 186/2/2
f 183/1/2 184/1/2 187/1/2
f 184/1/2 175/1/2 188/1/2
f 187/1/2 184/1/2 188/1/2
f 176/1/2 185/1/2 189/1/2
f 185/1/2 186/1/2 189/1/2
f 186/1/2 177/1/2 190/1/2
f 189/1/2 186/1/2 190/1/2
f 191/1/2 192/1/2 193/1/2
f 193/1/2 192/1/2 194/1/2
f 191/1/2 193/1/2 195/1/2
f 193/5/2 194/5/2 195/5/2
f 194/1/2 192/1/2 196/1/2
f 195/5/2 194/5/2 196/5/2
f 197/1/2 198/1/2 199/1/2
f 199/1/2 198/1/2 200/1/2
f 196/1/2 192/1/2 201/1/2
f 201/1/2 192/1/2 202/1/2
f 202/1/2 192/1/2 203/1/2
f 199/4/2 200/4/2 204/4/2
f 200/1/2 201/1/2 204/1/2
f 201/1/2 202/1/2 204/1/2
f 202/4/2 203/4/2 205/4/2
f 204/1/2 202/1/2 205/1/2
f 191/1/2 195/1/2 206/1/2
f 206/1/2 195/1/2 207/1/2
f 197/1/2 199/1/2 208/1/2
f 199/4/2 204/4/2 208/4/2
f 204/4/2 205/4/2 208/4/2
f 205/4/2 203/4/2 209/4/2
f 208/4/2 205/4/2 209/4/2
f 197/1/2 208/1/2 210/1/2
f 191/1/2 206/1/2 211/1/2
f 211/1/2 206/1/2 212/1/2
f 210/1/2 208/1/2 213/1/2
f 213/1/2 208/1/2 214/1/2
f 215/5/2 216/5/2 217/5/2
f 215/5/2 217/5/2 220/5/2
f 217/5/2 218/5/2 220/5/2
f 220/5/2 218/5/2 221/5/2
f 219/5/2 220/5/2 223/5/2
f 221/5/2 222/5/2 223/5/2
f 220/5/2 221/5/2 223/5/2
f 223/5/2 222/5/2 224/5/2
f 219/5/2 223/5/2 225/5/2
f 223/6/2 224/6/2 226/6/2
f 225/5/2 223/5/2 226/5/2
f 224/5/2 222/5/2 227/5/2
f 226/6/2 224/6/2 227/6/2
f 227/5/2 222/5/2 228/5/2
f 232/5/3 230/5/3 229/5/3
f 233/5/3 232/5/3 231/5/3
f 234/5/3 230/5/3 232/5/3
f 234/5/3 232/5/3 233/5/3
f 235/5/3 230/5/3 234/5/3
f 236/5/3 230/5/3 235/5/3
f 237/5/3 235/5/3 234/5/3
f 237/6/3 236/6/3 235/6/3
f 238/6/3 236/6/3 237/6/3
f 239/5/3 237/5/3 234/5/3
f 239/5/3 238/5/3 237/5/3
f 240/5/3 238/5/3 239/5/3
f 244/4/3 242/4/3 241/4/3
f 244/7/3 243/7/3 242/7/3
f 245/7/3 243/7/3 244/7/3
f 246/4/3 244/4/3 241/4/3
f 247/4/3 244/4/3 246/4/3
f 249/4/3 246/4/3 241/4/3
f 250/1/3 248/1/3 247/1/3
f 250/4/3 246/4/3 249/4/3
f 250/1/3 247/1/3 246/1/3
f 251/4/3 249/4/3 241/4/3
f 252/1/3 250/1/3 249/1/3
f 252/4/3 249/4/3 251/4/3
f 253/4/3 251/4/3 241/4/3
f 254/1/3 252/1/3 251/1/3
f 254/4/3 251/4/3 253/4/3
f 255/1/3 248/1/3 250/1/3
f 255/1/3 252/1/3 254/1/3
f 255/1/3 250/1/3 252/1/3
f 257/1/3 255/1/3 254/1/3
f 257/1/3 256/1/3 255/1/3
f 257/1/3 254/1/3 253/1/3
f 258/1/3 256/1/3 257/1/3
f 261/5/3 260/5/3 259/5/3
f 262/5/3 260/5/3 261/5/3
f 265/5/3 264/5/3 263/5/3
f 266/5/3 264/5/3 265/5/3
f 269/7/3 268/7/3 267/7/3
f 270/7/3 268/7/3 269/7/3
f 273/1/3 272/1/3 271/1/3
f 274/1/3 272/1/3 273/1/3
f 278/7/3 276/7/3 275/7/3
f 279/7/3 278/7/3 277/7/3
f 280/7/3 276/7/3 278/7/3
f 280/7/3 278/7/3 279/7/3
f 285/7/3 282/7/3 281/7/3
f 286/7/3 282/7/3 285/7/3
f 287/3/3 284/3/3 283/3/3
f 288/3/3 284/3/3 287/3/3
f 294/3/3 290/3/3 289/3/3
f 295/4/3 291/4/3 290/4/3
f 295/3/3 290/3/3 294/3/3
f 296/3/3 292/3/3 291/3/3
f 296/4/3 291/4/3 295/4/3
f 297/3/3 292/3/3 296/3/3
f 298/9/3 294/9/3 293/9/3
f 299/9/3 294/9/3 298/9/3
f 302/1/3 301/1/3 300/1/3
f 303/1/3 301/1/3 302/1/3
f 306/8/3 305/8/3 304/8/3
f 307/8/3 305/8/3 306/8/3
f 310/7/3 309/7/3 308/7/3
f 311/7/3 309/7/3 310/7/3
f 314/1/3 313/1/3 312/1/3
f 315/1/3 313/1/3 314/1/3
f 316/1/3 314/1/3 312/1/3
f 317/1/3 313/1/3 315/1/3
f 318/1/3 316/1/3 312/1/3
f 318/1/3 317/1/3 316/1/3
f 319/1/3 313/1/3 317/1/3
f 319/1/3 317/1/3 318/1/3
f 324/8/3 321/8/3 320/8/3
f 325/8/3 321/8/3 324/8/3
f 326/7/3 323/7/3 322/7/3
f 327/7/3 323/7/3 326/7/3
f 328/1/4 329/1/4 331/1/4
f 329/1/4 330/1/4 331/1/4
f 331/1/4 330/1/4 332/1/4
f 332/1/4 330/1/4 333/1/4
f 332/5/4 333/5/4 334/5/4
f 334/5/4 333/5/4 335/5/4
f 336/6/4 337/6/4 338/6/4
f 338/6/4 337/6/4 339/6/4
f 340/5/4 341/5/4 342/5/4
f 342/5/4 341/5/4 343/5/4
f 344/1/4 345/1/4 346/1/4
f 346/1/4 345/1/4 347/1/4
f 344/1/4 346/1/4 348/1/4
f 344/1/4 348/1/4 350/1/4
f 348/1/4 349/1/4 350/1/4
f 350/1/4 349/1/4 351/1/4
f 352/5/4 353/5/4 354/5/4
f 354/5/4 353/5/4 355/5/4
f 355/5/4 353/5/4 356/5/4
f 357/1/4 358/1/4 362/1/4
f 362/1/4 358/1/4 363/1/4
f 360/5/4 361/5/4 364/5/4
f 359/5/4 360/5/4 364/5/4
f 364/5/4 361/5/4 365/5/4
f 366/7/4 367/7/4 368/7/4
f 368/7/4 367/7/4 369/7/4
f 370/7/4 371/7/4 372/7/4
f 372/7/4 371/7/4 373/7/4
f 373/7/4 371/7/4 374/7/4
f 375/1/4 376/1/4 377/1/4
f 377/1/4 376/1/4 378/1/4
f 375/1/4 377/1/4 379/1/4
f 378/1/4 376/1/4 380/1/4
f 375/1/4 379/1/4 381/1/4
f 379/1/4 380/1/4 381/1/4
f 380/1/4 376/1/4 382/1/4
f 381/1/4 380/1/4 382/1/4
f 383/8/4 384/8/4 385/8/4
f 385/8/4 384/8/4 386/8/4
f 387/3/4 388/3/4 393/3/4
f 388/3/4 389/3/4 393/3/4
f 390/4/4 391/4/4 394/4/4
f 389/4/4 390/4/4 394/4/4
f 393/3/4 389/3/4 394/3/4
f 394/4/4 391/4/4 395/4/4
f 392/3/4 393/3/4 396/3/4
f 396/3/4 393/3/4 397/3/4
f 398/7/4 399/7/4 402/7/4
f 402/7/4 399/7/4 403/7/4
f 400/9/4 401/9/4 404/9/4
f 404/9/4 401/9/4 405/9/4
f 406/8/4 407/8/4 410/8/4
f 410/8/4 407/8/4 411/8/4
f 408/7/4 409/7/4 412/7/4
f 412/7/4 409/7/4 413/7/4
f 415/7/4 416/7/4 419/7/4
f 417/7/4 418/7/4 420/7/4
f 419/7/4 420/7/4 421/7/4
f 420/7/4 418/7/4 422/7/4
f 421/7/4 420/7/4 422/7/4
f 414/4/4 415/4/4 423/4/4
f 415/7/4 419/7/4 423/7/4
f 419/7/4 421/7/4 423/7/4
f 421/8/4 422/8/4 424/8/4
f 423/7/4 421/7/4 424/7/4
f 422/7/4 418/7/4 425/7/4
f 424/8/4 422/8/4 425/8/4
f 425/7/4 418/7/4 426/7/4
f 414/4/4 423/4/4 429/4/4
f 429/4/4 423/4/4 430/4/4
f 429/1/4 430/1/4 431/1/4
f 430/4/4 423/4/4 431/4/4
f 431/4/4 423/4/4 432/4/4
f 431/1/4 432/1/4 433/1/4
f 432/4/4 423/4/4 433/4/4
f 433/4/4 423/4/4 434/4/4
f 427/1/4 428/1/4 435/1/4
f 435/1/4 428/1/4 436/1/4
f 429/1/4 431/1/4 437/1/4
f 431/1/4 433/1/4 437/1/4
f 433/1/4 434/1/4 437/1/4
f 434/4/4 423/4/4 438/4/4
f 437/1/4 434/1/4 438/1/4
f 438/4/4 423/4/4 439/4/4
f 443/4/5 441/4/5 440/4/5
f 444/1/5 442/1/5 441/1/5
f 444/4/5 441/4/5 443/4/5
f 445/4/5 443/4/5 440/4/5
f 446/1/5 444/1/5 443/1/5
f 446/4/5 443/4/5 445/4/5
f 447/1/5 442/1/5 444/1/5
f 447/1/5 444/1/5 446/1/5
f 450/1/5 449/1/5 448/1/5
f 451/1/5 449/1/5 450/1/5
f 454/1/5 453/1/5 452/1/5
f 455/1/5 453/1/5 454/1/5
f 458/5/5 457/5/5 456/5/5
f 459/5/5 457/5/5 458/5/5
f 462/5/5 461/5/5 460/5/5
f 463/5/5 461/5/5 462/5/5
f 466/5/5 465/5/5 464/5/5
f 467/5/5 465/5/5 466/5/5
f 471/6/5 467/6/5 466/6/5
f 472/6/5 467/6/5 471/6/5
f 473/1/5 469/1/5 468/1/5
f 474/5/5 470/5/5 469/5/5
f 474/1/5 469/1/5 473/1/5
f 475/5/5 470/5/5 474/5/5
f 478/1/5 477/1/5 476/1/5
f 479/1/5 477/1/5 478/1/5
f 482/1/5 481/1/5 480/1/5
f 483/1/5 481/1/5 482/1/5
f 488/5/5 485/5/5 484/5/5
f 489/5/5 487/5/5 486/5/5
f 490/5/5 487/5/5 489/5/5
f 491/5/5 488/5/5 484/5/5
f 492/5/5 488/5/5 491/5/5
f 493/5/5 487/5/5 490/5/5
f 494/5/5 487/5/5 493/5/5
f 499/5/5 496/5/5 495/5/5
f 502/5/5 498/5/5 497/5/5
f 503/5/5 500/5/5 499/5/5
f 503/5/5 499/5/5 495/5/5
f 504/5/5 500/5/5 503/5/5
f 505/5/5 502/5/5 501/5/5
f 506/5/5 498/5/5 502/5/5
f 506/5/5 502/5/5 505/5/5
f 509/1/5 508/1/5 507/1/5
f 510/1/5 508/1/5 509/1/5
f 513/7/5 512/7/5 511/7/5
f 514/7/5 512/7/5 513/7/5
f 517/7/5 516/7/5 515/7/5
f 518/7/5 516/7/5 517/7/5
f 521/7/5 520/7/5 519/7/5
f 522/7/5 520/7/5 521/7/5
f 525/7/5 524/7/5 523/7/5
f 526/7/5 524/7/5 525/7/5
f 527/5/6 528/5/6 529/5/6
f 529/5/6 528/5/6 530/5/6
f 531/4/6 532/4/6 533/4/6
f 531/4/6 533/4/6 535/4/6
f 533/4/6 534/4/6 535/4/6
f 535/4/6 534/4/6 536/4/6
f 536/4/6 534/4/6 537/4/6
f 537/4/6 534/4/6 538/4/6
f 538/4/6 534/4/6 539/4/6
f 539/4/6 534/4/6 541/4/6
f 540/4/6 541/4/6 543/4/6
f 542/4/6 543/4/6 544/4/6
f 541/4/6 534/4/6 545/4/6
f 544/4/6 543/4/6 545/4/6
f 543/4/6 541/4/6 545/4/6
f 546/7/6 547/7/6 548/7/6
f 548/7/6 547/7/6 549/7/6
f 550/3/6 551/3/6 552/3/6
f 552/3/6 551/3/6 553/3/6
f 546/7/6 548/7/6 555/7/6
f 555/7/6 548/7/6 556/7/6
f 553/9/6 554/9/6 557/9/6
f 557/9/6 554/9/6 558/9/6
f 557/3/6 558/3/6 562/3/6
f 562/3/6 558/3/6 563/3/6
f 559/7/6 560/7/6 564/7/6
f 564/7/6 560/7/6 565/7/6
f 561/9/6 562/9/6 566/9/6
f 566/9/6 562/9/6 567/9/6
f 568/7/6 569/7/6 570/7/6
f 570/7/6 569/7/6 571/7/6
f 572/8/6 573/8/6 574/8/6
f 574/8/6 573/8/6 575/8/6
f 576/7/6 577/7/6 578/7/6
f 578/7/6 577/7/6 579/7/6
f 580/8/6 581/8/6 584/8/6
f 584/8/6 581/8/6 585/8/6
f 582/1/6 583/1/6 586/1/6
f 586/1/6 583/1/6 587/1/6
f 588/5/6 589/5/6 592/5/6
f 592/5/6 589/5/6 593/5/6
f 593/5/6 589/5/6 594/5/6
f 594/5/6 589/5/6 595/5/6
f 589/6/6 590/6/6 596/6/6
f 595/5/6 589/5/6 596/5/6
f 590/5/6 591/5/6 597/5/6
f 596/6/6 590/6/6 597/6/6
f 588/5/6 592/5/6 598/5/6
f 592/6/6 593/6/6 598/6/6
f 593/5/6 594/5/6 599/5/6
f 598/6/6 593/6/6 599/6/6
f 594/6/6 595/6/6 600/6/6
f 599/5/6 594/5/6 600/5/6
f 595/5/6 596/5/6 601/5/6
f 600/6/6 595/6/6 601/6/6
f 596/5/6 597/5/6 601/5/6
f 597/5/6 591/5/6 602/5/6
f 601/5/6 597/5/6 602/5/6
f 602/5/6 591/5/6 603/5/6
f 599/5/6 600/5/6 604/5/6
f 598/5/6 599/5/6 604/5/6
f 600/5/6 601/5/6 604/5/6
f 601/5/6 602/5/6 604/5/6
f 602/6/6 603/6/6 605/6/6
f 604/5/6 602/5/6 605/5/6
f 605/6/6 603/6/6 606/6/6
f 598/5/6 604/5/6 607/5/6
f 588/5/6 598/5/6 607/5/6
f 607/5/6 604/5/6 608/5/6
f 604/6/6 605/6/6 609/6/6
f 608/5/6 604/5/6 609/5/6
f 605/5/6 606/5/6 610/5/6
f 609/6/6 605/6/6 610/6/6
f 607/6/6 608/6/6 611/6/6
f 608/5/6 609/5/6 612/5/6
f 611/6/6 608/6/6 612/6/6
f 609/5/6 610/5/6 612/5/6
f 612/5/6 610/5/6 613/5/6
f 613/5/6 610/5/6 614/5/6
f 611/5/6 612/5/6 615/5/6
f 612/5/6 613/5/6 615/5/6
f 613/1/6 614/1/6 616/1/6
f 615/5/6 613/5/6 616/5/6
f 614/5/6 610/5/6 617/5/6
f 616/1/6 614/1/6 617/1/6
f 610/5/6 606/5/6 618/5/6
f 617/5/6 610/5/6 618/5/6
f 616/1/6 617/1/6 619/1/6
f 619/1/6 617/1/6 620/1/6
f 621/1/6 622/1/6 623/1/6
f 623/1/6 622/1/6 624/1/6
f 625/7/6 626/7/6 627/7/6
f 627/7/6 626/7/6 628/7/6
f 629/7/6 630/7/6 631/7/6
f 631/7/6 630/7/6 632/7/6
f 633/4/6 634/4/6 637/4/6
f 635/3/6 636/3/6 637/3/6
f 634/3/6 635/3/6 637/3/6
f 637/3/6 636/3/6 638/3/6
f 633/4/6 637/4/6 639/4/6
f 637/4/6 638/4/6 639/4/6
f 639/4/6 638/4/6 640/4/6
f 640/4/6 638/4/6 641/4/6
f 642/7/6 643/7/6 644/7/6
f 644/7/6 643/7/6 645/7/6
f 646/7/6 647/7/6 648/7/6
f 648/7/6 647/7/6 649/7/6
